<mxfile host="app.diagrams.net" agent="Mozilla/5.0 (Windows NT 10.0; Win64; x64) AppleWebKit/537.36 (KHTML, like Gecko) Chrome/133.0.0.0 Safari/537.36" version="26.0.16">
  <diagram name="페이지-1" id="zhreDtWAXC5EbdMlIjKc">
    <mxGraphModel dx="1512" dy="821" grid="0" gridSize="10" guides="1" tooltips="1" connect="1" arrows="1" fold="1" page="0" pageScale="1" pageWidth="827" pageHeight="1169" math="0" shadow="0">
      <root>
        <mxCell id="0" />
        <mxCell id="1" parent="0" />
        <mxCell id="TWRnFVAgVnm468VlXLX_-1" value="사용자" style="shape=umlActor;verticalLabelPosition=bottom;verticalAlign=top;html=1;" vertex="1" parent="1">
          <mxGeometry x="-524" y="345" width="30" height="60" as="geometry" />
        </mxCell>
        <mxCell id="TWRnFVAgVnm468VlXLX_-2" value="사이드바" style="ellipse;whiteSpace=wrap;html=1;" vertex="1" parent="1">
          <mxGeometry x="-251" y="335" width="120" height="80" as="geometry" />
        </mxCell>
        <mxCell id="TWRnFVAgVnm468VlXLX_-3" value="사이드바 색상변경" style="ellipse;whiteSpace=wrap;html=1;" vertex="1" parent="1">
          <mxGeometry x="24" y="335" width="120" height="80" as="geometry" />
        </mxCell>
        <mxCell id="TWRnFVAgVnm468VlXLX_-5" value="" style="endArrow=classic;html=1;rounded=0;" edge="1" parent="1">
          <mxGeometry width="50" height="50" relative="1" as="geometry">
            <mxPoint x="-442" y="379" as="sourcePoint" />
            <mxPoint x="-269" y="379" as="targetPoint" />
          </mxGeometry>
        </mxCell>
        <mxCell id="TWRnFVAgVnm468VlXLX_-10" value="" style="endArrow=none;dashed=1;html=1;rounded=0;fontSize=12;startSize=8;endSize=8;curved=1;" edge="1" parent="1" target="TWRnFVAgVnm468VlXLX_-11">
          <mxGeometry width="50" height="50" relative="1" as="geometry">
            <mxPoint x="-116" y="378" as="sourcePoint" />
            <mxPoint x="8" y="378" as="targetPoint" />
          </mxGeometry>
        </mxCell>
        <mxCell id="TWRnFVAgVnm468VlXLX_-11" value="" style="triangle;whiteSpace=wrap;html=1;" vertex="1" parent="1">
          <mxGeometry x="-26" y="359.5" width="28" height="31" as="geometry" />
        </mxCell>
        <mxCell id="TWRnFVAgVnm468VlXLX_-12" value="&amp;lt;&amp;lt;include&amp;gt;&amp;gt;" style="text;html=1;align=center;verticalAlign=middle;whiteSpace=wrap;rounded=0;" vertex="1" parent="1">
          <mxGeometry x="-106" y="329.5" width="60" height="30" as="geometry" />
        </mxCell>
      </root>
    </mxGraphModel>
  </diagram>
</mxfile>
